<svg width="94" height="54" viewBox="0 0 94 54" fill="none" xmlns="http://www.w3.org/2000/svg">
<path d="M30.808 37.488H13.016L10.072 46H0.664L16.728 1.264H27.16L43.224 46H33.752L30.808 37.488ZM28.376 30.32L21.912 11.632L15.448 30.32H28.376ZM82.5085 53.872L75.7245 45.744C73.8472 46.2133 71.9272 46.448 69.9645 46.448C65.7832 46.448 61.9432 45.4667 58.4445 43.504C54.9458 41.5413 52.1725 38.832 50.1245 35.376C48.0765 31.8773 47.0525 27.9307 47.0525 23.536C47.0525 19.184 48.0765 15.28 50.1245 11.824C52.1725 8.32533 54.9458 5.59466 58.4445 3.632C61.9432 1.66933 65.7832 0.688 69.9645 0.688C74.1885 0.688 78.0285 1.66933 81.4845 3.632C84.9832 5.59466 87.7352 8.32533 89.7405 11.824C91.7885 15.28 92.8125 19.184 92.8125 23.536C92.8125 27.504 91.9592 31.1307 90.2525 34.416C88.5885 37.6587 86.3058 40.304 83.4045 42.352L93.6445 53.872H82.5085ZM56.2685 23.536C56.2685 26.5227 56.8445 29.1467 57.9965 31.408C59.1485 33.6693 60.7485 35.4187 62.7965 36.656C64.8872 37.8507 67.2765 38.448 69.9645 38.448C72.6525 38.448 75.0205 37.8507 77.0685 36.656C79.1165 35.4187 80.7165 33.6693 81.8685 31.408C83.0205 29.1467 83.5965 26.5227 83.5965 23.536C83.5965 20.5493 83.0205 17.9467 81.8685 15.728C80.7165 13.4667 79.1165 11.7387 77.0685 10.544C75.0205 9.34933 72.6525 8.752 69.9645 8.752C67.2765 8.752 64.8872 9.34933 62.7965 10.544C60.7485 11.7387 59.1485 13.4667 57.9965 15.728C56.8445 17.9467 56.2685 20.5493 56.2685 23.536Z" fill="#01B366"/>
</svg>
